<svg width="14" height="14" viewBox="0 0 14 14" fill="none" xmlns="http://www.w3.org/2000/svg">
<path d="M2.10039 0.699951C1.91474 0.699951 1.73669 0.773701 1.60542 0.904976C1.47414 1.03625 1.40039 1.2143 1.40039 1.39995C1.40039 1.5856 1.47414 1.76365 1.60542 1.89493C1.73669 2.0262 1.91474 2.09995 2.10039 2.09995H2.95439L3.16789 2.95535C3.17001 2.9652 3.17235 2.975 3.17489 2.98475L4.12549 6.78575L3.50039 7.41015C2.61839 8.29215 3.24279 9.79995 4.49019 9.79995H10.5004C10.686 9.79995 10.8641 9.7262 10.9954 9.59492C11.1266 9.46365 11.2004 9.2856 11.2004 9.09995C11.2004 8.9143 11.1266 8.73625 10.9954 8.60498C10.8641 8.4737 10.686 8.39995 10.5004 8.39995H4.49019L5.19019 7.69995H9.80039C9.93035 7.69988 10.0577 7.66363 10.1683 7.59526C10.2788 7.5269 10.3681 7.42911 10.4262 7.31285L12.5262 3.11285C12.5795 3.00616 12.6047 2.88761 12.5993 2.76846C12.5939 2.6493 12.5582 2.5335 12.4955 2.43203C12.4328 2.33056 12.3453 2.24679 12.2411 2.18867C12.1369 2.13055 12.0197 2.10001 11.9004 2.09995H4.39639L4.17939 1.22985C4.14147 1.07848 4.05406 0.944117 3.93104 0.84811C3.80801 0.752103 3.65644 0.699955 3.50039 0.699951H2.10039ZM11.2004 11.5499C11.2004 11.8284 11.0898 12.0955 10.8929 12.2924C10.6959 12.4893 10.4289 12.5999 10.1504 12.5999C9.87191 12.5999 9.60484 12.4893 9.40793 12.2924C9.21101 12.0955 9.10039 11.8284 9.10039 11.5499C9.10039 11.2715 9.21101 11.0044 9.40793 10.8075C9.60484 10.6106 9.87191 10.5 10.1504 10.5C10.4289 10.5 10.6959 10.6106 10.8929 10.8075C11.0898 11.0044 11.2004 11.2715 11.2004 11.5499ZM4.55039 12.5999C4.82887 12.5999 5.09594 12.4893 5.29285 12.2924C5.48977 12.0955 5.60039 11.8284 5.60039 11.5499C5.60039 11.2715 5.48977 11.0044 5.29285 10.8075C5.09594 10.6106 4.82887 10.5 4.55039 10.5C4.27191 10.5 4.00484 10.6106 3.80793 10.8075C3.61101 11.0044 3.50039 11.2715 3.50039 11.5499C3.50039 11.8284 3.61101 12.0955 3.80793 12.2924C4.00484 12.4893 4.27191 12.5999 4.55039 12.5999Z" fill="#E8E8E2"/>
</svg>
