<svg width="60" height="60" viewBox="0 0 60 60" fill="none" xmlns="http://www.w3.org/2000/svg">
<circle cx="30" cy="30" r="30" fill="#6D8434"/>
<path d="M50.5253 39.1171L50.0888 40.2991L42.0379 37.3326L42.4744 36.1506L43.1388 36.3954L43.1471 36.3729C42.8652 35.9238 42.634 35.1991 42.9624 34.3098C43.507 32.8352 45.0588 32.1665 46.9504 32.8635C48.8421 33.5605 49.5874 35.0756 49.0428 36.5502C48.7143 37.4395 48.0899 37.8489 47.5385 37.991L47.5302 38.0135L50.5253 39.1171ZM43.8559 34.8693C43.4984 35.8373 44.0775 36.7285 45.3499 37.1974C46.6335 37.6703 47.6421 37.3642 47.9996 36.3961C48.3821 35.3604 47.6399 34.4603 46.5139 34.0454C45.3879 33.6306 44.2384 33.8336 43.8559 34.8693Z" fill="#FAFAFA"/>
<path d="M47.0499 42.2421C47.2557 41.9615 47.6623 41.8128 48.0111 42.0677C48.3599 42.3226 48.3311 42.7474 48.1253 43.0281C47.9053 43.3281 47.5155 43.4742 47.1667 43.2193C46.8179 42.9644 46.8299 42.5421 47.0499 42.2421ZM46.5857 41.13L45.8406 42.1461L40.8898 38.5279L41.6349 37.5118L46.5857 41.13Z" fill="#FAFAFA"/>
<path d="M40.929 43.6923C39.89 44.2057 38.7844 44.7894 37.8517 43.661C37.1026 42.7545 37.4145 41.5496 38.5633 40.6039C40.0919 39.3455 41.3384 39.5162 42.2103 40.4771L41.2653 41.255C40.7986 40.7844 40.2169 40.5327 39.2163 41.3564C38.54 41.9131 38.528 42.4825 38.7726 42.7785C39.2619 43.3705 39.8653 42.9515 40.6977 42.546C41.5934 42.104 42.7349 41.4131 43.6217 42.486C44.2638 43.263 44.0904 44.4471 42.9046 45.4233C41.6168 46.4834 40.4319 46.2931 39.6867 45.5232L40.6317 44.7453C41.0023 45.0619 41.5011 45.2886 42.2608 44.6632C42.8444 44.1828 42.976 43.7015 42.7008 43.3685C42.3032 42.8875 41.7446 43.2852 40.929 43.6923Z" fill="#FAFAFA"/>
<path d="M34.4078 47.1788C34.6549 47.7539 35.2742 48.342 36.2968 47.9947C37.4671 47.5972 37.6259 46.4281 37.2536 45.3379C36.8814 44.2477 36.0516 43.4143 34.8699 43.8156C33.8472 44.1629 33.7127 44.9943 33.8882 45.6571L32.6952 46.0622C32.3285 44.6913 33.0252 43.3522 34.5364 42.839C36.2749 42.2485 37.8263 43.1157 38.4467 44.9327C39.0671 46.7497 38.3687 48.3809 36.6416 48.9675C35.1304 49.4807 33.8123 48.8512 33.2148 47.584L34.4078 47.1788Z" fill="#FAFAFA"/>
<path d="M29.2617 43.5845C31.1781 43.7017 32.2592 45.1023 32.1435 47.0068C32.0279 48.9112 30.7853 50.1698 28.8689 50.0526C26.9524 49.9355 25.8714 48.5349 25.987 46.6304C26.1027 44.7259 27.3453 43.4674 29.2617 43.5845ZM29.1992 44.6146C28.0014 44.5414 27.3211 45.4496 27.2447 46.7073C27.1676 47.9769 27.7337 48.9493 28.9314 49.0225C30.1292 49.0957 30.8088 48.1995 30.8859 46.9299C30.9623 45.6722 30.3969 44.6879 29.1992 44.6146Z" fill="#FAFAFA"/>
<path d="M20.1947 47.3901L19.0611 46.8401L21.7437 41.3261L22.8774 41.8761L22.5309 42.5882L22.5525 42.5987C23.054 42.3085 23.8362 42.1545 24.7862 42.6155C25.8119 43.1131 26.3329 44.0994 25.7187 45.362L23.8655 49.1711L22.721 48.6158L24.4167 45.1304C24.779 44.3859 24.6969 43.7592 23.9195 43.382C23.045 42.9577 22.2264 43.2141 21.8274 44.0342L20.1947 47.3901Z" fill="#FAFAFA"/>
<path d="M14.6883 43.0437C13.9274 42.1947 13.8191 41.0849 14.8665 40.1499L18.0265 37.329L18.8755 38.2762L15.984 40.8575C15.3663 41.4089 15.2047 42.0197 15.7813 42.6631C16.43 43.3869 17.2851 43.46 17.9655 42.8527L20.7495 40.3674L21.5904 41.3057L17.016 45.3893L16.1751 44.451L16.7659 43.9235L16.7499 43.9057C16.1756 43.9841 15.393 43.8301 14.6883 43.0437Z" fill="#FAFAFA"/>
<path d="M12.0896 36.3296L12.5644 37.3793L15.5954 36.0148C16.2301 35.7291 16.1682 35.3885 15.7881 34.6648L16.7292 34.2411C16.8878 34.4461 17.0343 34.6828 17.1728 34.9889C17.5883 35.9074 17.3999 36.5975 16.2182 37.1294L13.0886 38.5382L13.4546 39.3473L12.5135 39.7709L12.1476 38.9618L10.3858 39.7549L9.8616 38.5959L11.6233 37.8029L11.1485 36.7533L12.0896 36.3296Z" fill="#FAFAFA"/>
<path d="M8.42623 23.7142L8.70009 22.4843L17.0754 24.3473L16.8015 25.5771L16.1104 25.4234L16.1052 25.4468C16.4448 25.8543 16.7712 26.5416 16.5651 27.4669C16.2235 29.0013 14.7757 29.8717 12.8078 29.434C10.8399 28.9963 9.89807 27.5943 10.2397 26.0599C10.4458 25.1346 11.0096 24.6453 11.5369 24.4307L11.5421 24.4073L8.42623 23.7142ZM15.6047 27.032C15.829 26.0247 15.1356 25.2189 13.8119 24.9244C12.4766 24.6274 11.5184 25.0658 11.2941 26.0732C11.0541 27.1508 11.9103 27.9436 13.0816 28.2041C14.253 28.4647 15.3648 28.1096 15.6047 27.032Z" fill="#FAFAFA"/>
<path d="M11.4426 20.1526C11.2764 20.4583 10.8934 20.6601 10.5136 20.4542C10.1339 20.2483 10.1055 19.8233 10.2717 19.5176C10.4495 19.1908 10.8162 18.9938 11.1959 19.1997C11.5757 19.4057 11.6204 19.8258 11.4426 20.1526ZM12.0517 21.1927L12.6537 20.0859L18.0441 23.0091L17.4421 24.1159L12.0517 21.1927Z" fill="#FAFAFA"/>
<path d="M17.3271 17.8758C18.29 17.2307 19.3095 16.5072 20.3818 17.5039C21.2432 18.3045 21.0918 19.54 20.0768 20.628C18.7261 22.0759 17.4681 22.0698 16.4779 21.2314L17.3129 20.3363C17.8372 20.7418 18.4468 20.9152 19.3308 19.9675C19.9284 19.3269 19.8657 18.7608 19.5845 18.4994C19.0219 17.9765 18.4787 18.471 17.7065 18.982C16.8765 19.5375 15.8354 20.372 14.8158 19.4244C14.0775 18.7381 14.0943 17.5414 15.1421 16.4183C16.2799 15.1986 17.4794 15.2322 18.3189 15.8978L17.484 16.7929C17.0751 16.5275 16.551 16.368 15.8798 17.0876C15.3641 17.6404 15.2968 18.1348 15.6132 18.4289C16.0702 18.8537 16.572 18.3862 17.3271 17.8758Z" fill="#FAFAFA"/>
<path d="M23.2441 13.5933C22.9213 13.057 22.228 12.5583 21.2618 13.0408C20.156 13.5931 20.1572 14.7728 20.6739 15.8025C21.1906 16.8321 22.1258 17.5454 23.2423 16.9878C24.2085 16.5052 24.2291 15.6633 23.9653 15.0305L25.0925 14.4675C25.6417 15.776 25.1329 17.1971 23.7051 17.9102C22.0626 18.7305 20.4078 18.0815 19.5467 16.3654C18.6856 14.6494 19.1564 12.9388 20.7882 12.1238C22.216 11.4107 23.6075 11.8559 24.3713 13.0303L23.2441 13.5933Z" fill="#FAFAFA"/>
<path d="M28.822 16.4352C26.9071 16.5747 25.6482 15.3308 25.508 13.428C25.3677 11.5251 26.4307 10.1122 28.3456 9.97276C30.2606 9.83332 31.5194 11.0772 31.6597 12.98C31.7999 14.8829 30.7369 16.2958 28.822 16.4352ZM28.7461 15.406C29.943 15.3189 30.4956 14.3281 30.403 13.0715C30.3095 11.803 29.6183 10.9148 28.4215 11.002C27.2247 11.0891 26.6711 12.0679 26.7646 13.3365C26.8573 14.5931 27.5493 15.4932 28.7461 15.406Z" fill="#FAFAFA"/>
<path d="M37.3486 11.4477L38.5452 11.8424L36.6205 17.6645L35.424 17.2698L35.6725 16.5178L35.6498 16.5103C35.1914 16.8645 34.4368 17.121 33.4339 16.7902C32.3513 16.433 31.7038 15.5244 32.1445 14.1914L33.474 10.1695L34.682 10.568L33.4654 14.2481C33.2055 15.0342 33.3703 15.6446 34.1908 15.9153C35.1139 16.2198 35.891 15.857 36.1772 14.9911L37.3486 11.4477Z" fill="#FAFAFA"/>
<path d="M43.3934 15.008C44.259 15.7498 44.5121 16.8358 43.5966 17.9003L40.8345 21.1119L39.8687 20.2842L42.396 17.3455C42.9359 16.7178 43.0159 16.091 42.3599 15.5288C41.6218 14.8963 40.7646 14.936 40.1699 15.6275L37.7365 18.457L36.7797 17.6371L40.7781 12.988L41.7348 13.8079L41.2184 14.4083L41.2366 14.424C41.7956 14.2709 42.5916 14.3208 43.3934 15.008Z" fill="#FAFAFA"/>
<path d="M46.8453 21.2669L46.2335 20.2907L43.4135 22.0505C42.823 22.4189 42.9302 22.7481 43.4043 23.4141L42.5287 23.9604C42.344 23.7787 42.1669 23.5639 41.9885 23.2792C41.4532 22.4251 41.5469 21.7159 42.6464 21.0298L45.558 19.2129L45.0864 18.4605L45.9619 17.9142L46.4335 18.6666L48.0726 17.6438L48.7481 18.7216L47.109 19.7444L47.7208 20.7205L46.8453 21.2669Z" fill="#FAFAFA"/>
<path d="M32.918 27.6667C27.668 28.8333 26.443 32.4325 25.2296 35.4483L26.3321 35.8333L26.8863 34.4917C27.1663 34.5908 27.458 34.6667 27.668 34.6667C34.0846 34.6667 35.8346 24.75 35.8346 24.75C35.2513 25.9167 31.168 26.0625 28.2513 26.6458C25.3346 27.2292 24.168 29.7083 24.168 30.875C24.168 32.0417 25.1888 33.0625 25.1888 33.0625C27.0846 27.6667 32.918 27.6667 32.918 27.6667Z" fill="#FAFAFA"/>
</svg>
