<svg width="100" height="100" viewBox="0 0 100 100" fill="none" xmlns="http://www.w3.org/2000/svg">
<circle cx="50" cy="50" r="50" fill="#FDC152"/>
<path d="M78.6667 53.6929C78.9914 51.1536 80.9499 49.8394 83.4733 50.162C85.9968 50.4846 87.5616 52.2493 87.237 54.7886C86.9123 57.328 84.9538 58.6422 82.4304 58.3196C79.9069 57.997 78.3421 56.2323 78.6667 53.6929ZM80.0316 53.8674C79.8287 55.4545 80.977 56.4401 82.6434 56.6531C84.3257 56.8682 85.6692 56.2012 85.8721 54.6141C86.075 53.027 84.9426 52.0435 83.2603 51.8284C81.5938 51.6154 80.2345 52.2804 80.0316 53.8674Z" fill="#010101"/>
<path d="M84.8017 64.112C84.7056 64.3835 84.6211 64.5742 84.5109 64.7898L83.0177 64.2613L83.0283 64.2311C83.8239 62.7985 83.2307 61.2137 81.5867 60.6318L77.65 59.2385L78.2105 57.6547L85.918 60.3827L85.3574 61.9665L83.9095 61.454L83.8988 61.4841C84.72 62.233 85.1594 63.1014 84.8017 64.112Z" fill="#010101"/>
<path d="M80.6855 71.3104L79.7993 72.7376L73.3291 68.7203C71.3309 67.4796 71.1985 65.7212 72.4223 63.7502C73.663 61.7521 75.3933 61.3009 76.6551 61.8772L75.7605 63.3181C75.0644 63.0742 74.2984 63.2766 73.5979 64.4048C72.8552 65.601 73.0191 66.5503 74.2696 67.3267L75.1124 67.85L75.1293 67.8228C74.8406 67.1351 74.7208 66.1755 75.4044 65.0745C76.4847 63.3346 78.5047 62.7808 80.6932 64.1396C82.8952 65.5069 83.2812 67.5545 82.2009 69.2944C81.5173 70.3955 80.604 70.7136 79.8868 70.7768L79.8699 70.804L80.6855 71.3104ZM76.4046 66.0722C75.6872 67.2276 76.018 68.3935 77.486 69.305C78.9541 70.2165 80.1457 69.9959 80.8631 68.8405C81.6396 67.5899 81.0983 66.3687 79.807 65.5669C78.5293 64.7736 77.1811 64.8216 76.4046 66.0722Z" fill="#010101"/>
<path d="M73.3074 76.3304C73.7152 76.7595 74.279 76.8418 75.0908 76.0702C76.065 75.1443 76.138 74.5011 75.4685 73.6805L76.6515 72.5563C77.6737 73.748 77.7917 75.3354 76.0057 77.0328C74.6951 78.2784 73.247 78.7055 71.7479 77.1282L69.0695 74.31C68.6727 73.8925 68.3705 73.7603 67.9391 74.2586L67.3879 73.6787C67.5671 73.3098 67.7422 73.0992 67.9742 72.8788C68.6236 72.2615 69.1456 72.2069 69.8127 72.6766L69.8359 72.6545C69.711 71.7799 70.042 70.7811 70.9582 69.9103C72.1644 68.764 73.568 68.7544 74.5159 69.7518C75.7504 71.0508 75.1736 72.3716 73.9646 74.0724C73.2138 75.1171 72.7673 75.7621 73.3074 76.3304ZM71.6064 71.1264C70.5973 72.0854 70.3754 73.2454 71.2903 74.208L72.139 75.1011C72.2039 74.7745 72.5471 74.1834 73.0052 73.5273C73.8048 72.348 73.97 71.6393 73.3968 71.0362C72.8787 70.4911 72.2674 70.4982 71.6064 71.1264Z" fill="#010101"/>
<path d="M67.4436 83.1919C66.11 83.9211 64.6349 83.7248 63.7367 82.0823L61.027 77.1268L62.515 76.3131L64.9945 80.8474C65.5242 81.8161 66.2691 82.2111 67.2798 81.6584C68.4169 81.0366 68.7707 79.9496 68.1873 78.8827L65.8 74.5168L67.274 73.7108L71.1966 80.8843L69.7226 81.6903L69.216 80.7638L69.1879 80.7792C69.1159 81.548 68.679 82.5163 67.4436 83.1919Z" fill="#010101"/>
<path d="M62.2863 86.6196C62.7276 86.4764 63.283 86.6326 63.4608 87.1805C63.6386 87.7283 63.2759 88.1656 62.8345 88.3089C62.3627 88.462 61.8276 88.3161 61.6498 87.7682C61.4719 87.2203 61.8145 86.7727 62.2863 86.6196ZM62.6529 85.054L61.0549 85.5726L58.5311 77.7959L60.129 77.2773L62.6529 85.054Z" fill="#010101"/>
<path d="M52.594 84.1731C52.763 84.9902 53.4146 85.9231 54.8429 85.7405C56.4776 85.5315 56.9974 84.0456 56.8026 82.522C56.6078 80.9984 55.7468 79.689 54.0962 79.9001C52.6679 80.0827 52.2699 81.1336 52.3221 82.0464L50.6557 82.2594C50.5432 80.3704 51.8109 78.805 53.9217 78.5352C56.35 78.2247 58.1444 79.7696 58.469 82.309C58.7937 84.8483 57.4457 86.795 55.0333 87.1034C52.9225 87.3732 51.3692 86.2008 50.9276 84.3861L52.594 84.1731Z" fill="#010101"/>
<path d="M36.3823 86.6593C37.4066 87.0293 37.8371 87.0463 38.1136 86.1604L38.3805 85.3051L36.9448 84.857L37.3547 83.5435L38.7904 83.9916L40.8161 77.5003L42.4351 78.0055L40.4094 84.4968L41.5243 84.8447L41.1144 86.1583L39.9995 85.8103L39.6897 86.8031C39.1749 88.4526 38.2912 88.8138 37.0082 88.4134C36.6111 88.2895 36.2741 88.134 35.9724 87.9728L36.3823 86.6593Z" fill="#010101"/>
<path d="M36.2613 75.218C38.5028 76.4545 39.004 78.7592 37.7752 80.9868C36.5464 83.2143 34.3296 84.0198 32.088 82.7832C29.8465 81.5467 29.3453 79.242 30.5741 77.0144C31.8029 74.7869 34.0197 73.9814 36.2613 75.218ZM35.5966 76.4228C34.1957 75.65 32.8566 76.3549 32.0452 77.8259C31.226 79.3109 31.3517 80.8056 32.7526 81.5784C34.1536 82.3512 35.4849 81.6603 36.3041 80.1753C37.1156 78.7043 36.9976 77.1956 35.5966 76.4228Z" fill="#010101"/>
<path d="M30.3153 70.8576C32.1709 72.6212 32.0724 74.9777 30.3199 76.8217C28.5673 78.6658 26.2189 78.884 24.3632 77.1204C22.5076 75.3568 22.6061 73.0003 24.3586 71.1562C26.1112 69.3122 28.4596 69.094 30.3153 70.8576ZM29.3674 71.855C28.2076 70.7528 26.7337 71.0958 25.5764 72.3136C24.408 73.543 24.1514 75.0207 25.3112 76.123C26.4709 77.2252 27.9338 76.8937 29.1021 75.6644C30.2595 74.4466 30.5271 72.9572 29.3674 71.855Z" fill="#010101"/>
<path d="M14.6387 69.4648L13.7736 68.0247L23.5803 62.1337L24.4454 63.5738L23.6362 64.0599L23.6526 64.0874C24.3551 64.1693 25.302 64.5338 25.9529 65.6173C27.0322 67.414 26.4324 69.5848 24.1282 70.969C21.824 72.3532 19.6258 71.8632 18.5465 70.0664C17.8956 68.9829 17.9911 67.9923 18.3036 67.3006L18.2871 67.2732L14.6387 69.4648ZM24.6251 66.079C23.9165 64.8994 22.506 64.7575 20.9561 65.6885C19.3926 66.6278 18.8692 67.9314 19.5777 69.111C20.3357 70.3728 21.8915 70.3528 23.2631 69.5289C24.6347 68.705 25.3831 67.3408 24.6251 66.079Z" fill="#010101"/>
<path d="M21.4027 51.1726C21.5015 53.7307 19.7867 55.3501 17.2446 55.4482C14.7025 55.5464 12.8679 54.0641 12.7691 51.506C12.6704 48.9479 14.3852 47.3285 16.9273 47.2304C19.4694 47.1322 21.3039 48.6145 21.4027 51.1726ZM20.0277 51.2257C19.966 49.6269 18.6708 48.8443 16.9921 48.9091C15.2974 48.9745 14.0824 49.8541 14.1441 51.4529C14.2059 53.0517 15.485 53.8349 17.1798 53.7695C18.8585 53.7047 20.0895 52.8245 20.0277 51.2257Z" fill="#010101"/>
<path d="M13.6507 41.7502C13.7014 41.4667 13.7538 41.2648 13.8276 41.0342L15.3868 41.3131L15.3812 41.3446C14.8289 42.8875 15.6717 44.3548 17.3884 44.6619L21.4992 45.3972L21.2034 47.0509L13.1551 45.6113L13.4509 43.9576L14.9629 44.228L14.9686 44.1965C14.0366 43.591 13.462 42.8055 13.6507 41.7502Z" fill="#010101"/>
<path d="M16.5204 34.0154L17.1632 32.4632L24.1996 35.3776C26.3726 36.2776 26.7885 37.9912 25.9007 40.1346C25.0007 42.3076 23.3666 43.0335 22.028 42.6696L22.6769 41.1027C23.4034 41.2303 24.1264 40.9064 24.6346 39.6794C25.1733 38.3786 24.8576 37.4685 23.4976 36.9052L22.5811 36.5256L22.5689 36.5552C22.9653 37.187 23.2392 38.1144 22.7433 39.3117C21.9596 41.2039 20.0562 42.0781 17.6763 41.0923C15.2816 40.1005 14.5685 38.1426 15.3522 36.2505C15.8481 35.0531 16.6976 34.591 17.3951 34.4123L17.4073 34.3827L16.5204 34.0154ZM21.5945 38.4896C22.1149 37.2331 21.5993 36.1363 20.0029 35.4751C18.4064 34.8138 17.2663 35.2249 16.7459 36.4814C16.1826 37.8413 16.9149 38.9585 18.3192 39.5402C19.7087 40.1157 21.0312 39.8495 21.5945 38.4896Z" fill="#010101"/>
<path d="M22.9866 27.8513C22.5156 27.4926 21.9459 27.5013 21.2674 28.3924C20.4532 29.4616 20.4836 30.1083 21.2753 30.8117L20.2866 32.1101C19.0876 31.0965 18.7181 29.5482 20.2108 27.5878C21.3061 26.1494 22.6677 25.4969 24.399 26.8151L27.4923 29.1706C27.9505 29.5195 28.2699 29.6018 28.6164 29.0412L29.2529 29.5258C29.1349 29.9186 28.9955 30.1543 28.8017 30.4089C28.2589 31.1218 27.7522 31.2589 27.0188 30.9016L26.9994 30.927C27.2621 31.7705 27.0945 32.8094 26.3288 33.815C25.3207 35.1389 23.9366 35.372 22.8418 34.5384C21.4161 33.4528 21.7751 32.057 22.6975 30.1852C23.2723 29.0342 23.6103 28.3262 22.9866 27.8513ZM25.4952 32.7177C26.3385 31.6102 26.3727 30.4296 25.3161 29.6251L24.3359 28.8787C24.3239 29.2115 24.0792 29.8497 23.7316 30.5704C23.1301 31.862 23.08 32.5881 23.742 33.0921C24.3403 33.5477 24.9426 33.4433 25.4952 32.7177Z" fill="#010101"/>
<path d="M27.5639 20.1931C28.7597 19.2547 30.247 19.2061 31.4027 20.6788L34.8895 25.122L33.5553 26.169L30.3648 22.1035C29.6832 21.235 28.8836 20.9676 27.9773 21.6788C26.9578 22.4789 26.7872 23.6093 27.5379 24.5659L30.6099 28.4804L29.2883 29.5176L24.2408 23.0856L25.5624 22.0485L26.2143 22.8792L26.2395 22.8595C26.1843 22.0893 26.4563 21.0623 27.5639 20.1931Z" fill="#010101"/>
<path d="M32.1681 15.9042C31.7561 16.1178 31.1827 16.0546 30.9176 15.5432C30.6525 15.0318 30.9388 14.541 31.3507 14.3275C31.7911 14.0992 32.3429 14.1556 32.608 14.667C32.8731 15.1783 32.6084 15.676 32.1681 15.9042ZM32.0626 17.5087L33.5542 16.7356L37.3167 23.9944L35.8252 24.7675L32.0626 17.5087Z" fill="#010101"/>
<path d="M42.1391 16.7226C41.839 15.944 41.0439 15.13 39.6645 15.5434C38.0858 16.0164 37.8156 17.5673 38.2566 19.0386C38.6975 20.51 39.7607 21.6612 41.3547 21.1836C42.7341 20.7702 42.9551 19.6684 42.7546 18.7764L44.3639 18.2942C44.7832 20.1394 43.7881 21.8908 41.7497 22.5017C39.4047 23.2044 37.3821 21.9731 36.6473 19.5209C35.9124 17.0686 36.9245 14.928 39.2542 14.2299C41.2926 13.619 43.0164 14.5222 43.7484 16.2404L42.1391 16.7226Z" fill="#010101"/>
<path d="M57.6599 11.6233C56.589 11.4253 56.1615 11.4788 56.0332 12.3978L55.9093 13.2852L57.3989 13.4931L57.2087 14.8559L55.7191 14.648L54.7792 21.3828L53.0994 21.1483L54.0394 14.4136L52.8826 14.2521L53.0728 12.8893L54.2296 13.0508L54.3734 12.0208C54.6123 10.3094 55.4252 9.80895 56.7563 9.99474C57.1683 10.0522 57.5262 10.1507 57.8501 10.2605L57.6599 11.6233Z" fill="#010101"/>
<path d="M59.6757 22.8774C57.2624 22.0232 56.392 19.8312 57.2408 17.4329C58.0896 15.0347 60.1453 13.8783 62.5586 14.7325C64.9718 15.5867 65.8423 17.7787 64.9935 20.177C64.1447 22.5752 62.089 23.7316 59.6757 22.8774ZM60.1348 21.5802C61.6432 22.1141 62.8492 21.2001 63.4098 19.6164C63.9757 18.0176 63.6077 16.5635 62.0994 16.0297C60.5911 15.4958 59.3904 16.3947 58.8245 17.9935C58.264 19.5772 58.6265 21.0464 60.1348 21.5802Z" fill="#010101"/>
<path d="M66.1562 26.1284C64.0376 24.6914 63.75 22.3504 65.178 20.245C66.606 18.1396 68.8874 17.5409 71.006 18.9779C73.1247 20.4149 73.4122 22.7559 71.9842 24.8613C70.5562 26.9667 68.2749 27.5653 66.1562 26.1284ZM66.9286 24.9896C68.2527 25.8877 69.6508 25.3086 70.5938 23.9183C71.5458 22.5147 71.5578 21.0148 70.2337 20.1167C68.9095 19.2186 67.5204 19.7844 66.5684 21.188C65.6254 22.5784 65.6044 24.0915 66.9286 24.9896Z" fill="#010101"/>
<path d="M82.0236 25.0949L83.1081 26.3779L74.3716 33.7634L73.287 32.4804L74.0079 31.871L73.9872 31.8465C73.2807 31.8781 72.2877 31.67 71.4717 30.7047C70.1185 29.1041 70.3629 26.8652 72.4157 25.1299C74.4685 23.3945 76.7168 23.5262 78.0699 25.1269C78.8859 26.0922 78.9503 27.0853 78.7526 27.8181L78.7733 27.8425L82.0236 25.0949ZM72.7084 30.0364C73.5967 31.0872 75.0117 31.0014 76.3925 29.8342C77.7855 28.6566 78.0933 27.286 77.205 26.2351C76.2547 25.111 74.7222 25.3799 73.5003 26.4129C72.2784 27.4458 71.7581 28.9122 72.7084 30.0364Z" fill="#010101"/>
<path d="M55 46C46 48 43.9 54.17 41.82 59.34L43.71 60L44.66 57.7C45.14 57.87 45.64 58 46 58C57 58 60 41 60 41C59 43 52 43.25 47 44.25C42 45.25 40 49.5 40 51.5C40 53.5 41.75 55.25 41.75 55.25C45 46 55 46 55 46Z" fill="#010101"/>
</svg>
