<svg width="22" height="16" viewBox="0 0 22 16" fill="none" xmlns="http://www.w3.org/2000/svg">
<path fill-rule="evenodd" clip-rule="evenodd" d="M17.1809 0.499883C16.1609 0.439883 14.0609 0.379883 10.8809 0.379883H10.4609C7.40085 0.379883 5.36088 0.439883 4.34088 0.559883C2.96088 0.679883 2.00085 1.03988 1.46085 1.51988C0.980852 1.93988 0.620867 2.71988 0.500867 3.73988C0.440867 4.39988 0.380859 5.77988 0.380859 7.87988V8.17988C0.380859 10.1599 0.440852 11.5399 0.560852 12.1999C0.740852 13.1599 1.04088 13.8799 1.64088 14.2999C2.24088 14.7799 3.26087 15.0799 4.70087 15.1999C5.72087 15.2599 7.82087 15.3199 11.0009 15.3199H11.4209C14.4809 15.3199 16.5209 15.2599 17.5409 15.1399C18.9209 15.0199 19.8809 14.6599 20.4209 14.1799C20.9009 13.7599 21.2609 12.9799 21.3809 11.9599C21.4409 11.2999 21.5009 9.91988 21.5009 7.81988V7.51988C21.5009 5.53988 21.4409 4.15988 21.3209 3.49988C21.1409 2.53988 20.8409 1.81988 20.2409 1.39988C19.6409 0.919883 18.6209 0.619883 17.1809 0.499883ZM14.8409 7.87988L8.24088 11.8399V3.91988L14.8409 7.87988Z" fill="#E8E8E2"/>
</svg>
